HIERARCHY
ROOT hip
{
  OFFSET 0 0 0
  CHANNELS 6 Xposition Yposition Zposition Zrotation Yrotation Xrotation
  JOINT abdomen
  {
    OFFSET 0 20.6881 -0.73152
    CHANNELS 3 Zrotation Xrotation Yrotation
    JOINT chest
    {
      OFFSET 0 11.7043 -0.48768
      CHANNELS 3 Zrotation Xrotation Yrotation
      JOINT neck
      {
        OFFSET 0 22.1894 -2.19456
        CHANNELS 3 Zrotation Xrotation Yrotation
        JOINT head
        {
          OFFSET -0.24384 7.07133 1.2192
          CHANNELS 3 Zrotation Xrotation Yrotation
          JOINT leftEye
          {
            OFFSET 4.14528 8.04674 8.04672
            CHANNELS 3 Zrotation Xrotation Yrotation
            End Site
            {
              OFFSET 1 0 0
            }
          }
          JOINT rightEye
          {
            OFFSET -3.6576 8.04674 8.04672
            CHANNELS 3 Zrotation Xrotation Yrotation
            End Site
            {
              OFFSET 1 0 0
            }
          }
        }
      }
      JOINT rCollar
      {
        OFFSET -2.68224 19.2634 -4.8768
        CHANNELS 3 Zrotation Xrotation Yrotation
        JOINT rShldr
        {
          OFFSET -8.77824 -1.95073 1.46304
          CHANNELS 3 Zrotation Xrotation Yrotation
          JOINT rForeArm
          {
            OFFSET -28.1742 -1.7115 0.48768
            CHANNELS 3 Zrotation Xrotation Yrotation
            JOINT rHand
            {
              OFFSET -22.5879 0.773209 7.07136
              CHANNELS 3 Zrotation Xrotation Yrotation
              JOINT rThumb1
              {
                OFFSET -1.2192 -0.487915 3.41376
                CHANNELS 3 Zrotation Xrotation Yrotation
                JOINT rThumb2
                {
                  OFFSET -3.37035 -0.52449 3.41376
                  CHANNELS 3 Zrotation Xrotation Yrotation
                  End Site
                  {
                    OFFSET -1.78271 -1.18214 1.43049
                  }
                }
              }
              JOINT rIndex1
              {
                OFFSET -7.75947 0.938293 5.60832
                CHANNELS 3 Zrotation Xrotation Yrotation
                JOINT rIndex2
                {
                  OFFSET -2.54057 -0.884171 1.56538
                  CHANNELS 3 Zrotation Xrotation Yrotation
                  End Site
                  {
                    OFFSET -1.62519 -0.234802 1.16502
                  }
                }
              }
              JOINT rMid1
              {
                OFFSET -8.24714 1.18213 3.41376
                CHANNELS 3 Zrotation Xrotation Yrotation
                JOINT rMid2
                {
                  OFFSET -3.10165 -0.590103 1.0647
                  CHANNELS 3 Zrotation Xrotation Yrotation
                  End Site
                  {
                    OFFSET -2.48547 -0.328903 0.83742
                  }
                }
              }
              JOINT rRing1
              {
                OFFSET -8.82822 0.546677 1.51678
                CHANNELS 3 Zrotation Xrotation Yrotation
                JOINT rRing2
                {
                  OFFSET -2.60934 -0.819778 -0.0198488
                  CHANNELS 3 Zrotation Xrotation Yrotation
                  End Site
                  {
                    OFFSET -2.33842 -0.294052 0.168128
                  }
                }
              }
              JOINT rPinky1
              {
                OFFSET -8.27202 -0.0477905 -0.4584
                CHANNELS 3 Zrotation Xrotation Yrotation
                JOINT rPinky2
                {
                  OFFSET -1.82734 -0.647385 -0.700984
                  CHANNELS 3 Zrotation Xrotation Yrotation
                  End Site
                  {
                    OFFSET -1.69225 -0.51767 -0.607171
                  }
                }
              }
            }
          }
        }
      }
      JOINT lCollar
      {
        OFFSET 2.68224 19.2634 -4.8768
        CHANNELS 3 Zrotation Xrotation Yrotation
        JOINT lShldr
        {
          OFFSET 8.77824 -1.95073 1.46304
          CHANNELS 3 Zrotation Xrotation Yrotation
          JOINT lForeArm
          {
            OFFSET 28.1742 -1.7115 0.48768
            CHANNELS 3 Zrotation Xrotation Yrotation
            JOINT lHand
            {
              OFFSET 22.5879 0.773209 7.07136
              CHANNELS 3 Zrotation Xrotation Yrotation
              JOINT lThumb1
              {
                OFFSET 1.2192 -0.487915 3.41376
                CHANNELS 3 Zrotation Xrotation Yrotation
                JOINT lThumb2
                {
                  OFFSET 3.37035 -0.52449 3.41376
                  CHANNELS 3 Zrotation Xrotation Yrotation
                  End Site
                  {
                    OFFSET 1.78271 -1.18214 1.43049
                  }
                }
              }
              JOINT lIndex1
              {
                OFFSET 7.75947 0.938293 5.60832
                CHANNELS 3 Zrotation Xrotation Yrotation
                JOINT lIndex2
                {
                  OFFSET 2.54057 -0.884171 1.56538
                  CHANNELS 3 Zrotation Xrotation Yrotation
                  End Site
                  {
                    OFFSET 1.62519 -0.234802 1.16502
                  }
                }
              }
              JOINT lMid1
              {
                OFFSET 8.24714 1.18213 3.41376
                CHANNELS 3 Zrotation Xrotation Yrotation
                JOINT lMid2
                {
                  OFFSET 3.10165 -0.590103 1.0647
                  CHANNELS 3 Zrotation Xrotation Yrotation
                  End Site
                  {
                    OFFSET 2.48547 -0.328903 0.83742
                  }
                }
              }
              JOINT lRing1
              {
                OFFSET 8.82822 0.546677 1.51678
                CHANNELS 3 Zrotation Xrotation Yrotation
                JOINT lRing2
                {
                  OFFSET 2.60934 -0.819778 -0.0198488
                  CHANNELS 3 Zrotation Xrotation Yrotation
                  End Site
                  {
                    OFFSET 2.33842 -0.294052 0.168128
                  }
                }
              }
              JOINT lPinky1
              {
                OFFSET 8.27202 -0.0477905 -0.4584
                CHANNELS 3 Zrotation Xrotation Yrotation
                JOINT lPinky2
                {
                  OFFSET 1.82734 -0.647385 -0.700984
                  CHANNELS 3 Zrotation Xrotation Yrotation
                  End Site
                  {
                    OFFSET 1.69225 -0.51767 -0.607171
                  }
                }
              }
            }
          }
        }
      }
    }
  }
  JOINT rButtock
  {
    OFFSET -8.77824 4.35084 1.2192
    CHANNELS 3 Zrotation Xrotation Yrotation
    JOINT rThigh
    {
      OFFSET 0 -1.70687 -2.19456
      CHANNELS 3 Zrotation Xrotation Yrotation
      JOINT rShin
      {
        OFFSET 0 -36.8199 0.73152
        CHANNELS 3 Zrotation Xrotation Yrotation
        JOINT rFoot
        {
          OFFSET 0.73152 -45.1104 -5.12064
          CHANNELS 3 Zrotation Xrotation Yrotation
          End Site
          {
            OFFSET -1.1221 -3.69964 12.103
          }
        }
      }
    }
  }
  JOINT lButtock
  {
    OFFSET 8.77824 4.35084 1.2192
    CHANNELS 3 Zrotation Xrotation Yrotation
    JOINT lThigh
    {
      OFFSET 0 -1.70687 -2.19456
      CHANNELS 3 Zrotation Xrotation Yrotation
      JOINT lShin
      {
        OFFSET 0 -36.8199 0.73152
        CHANNELS 3 Zrotation Xrotation Yrotation
        JOINT lFoot
        {
          OFFSET -0.73152 -45.1104 -5.12064
          CHANNELS 3 Zrotation Xrotation Yrotation
          End Site
          {
            OFFSET 1.1221 -3.69964 12.103
          }
        }
      }
    }
  }
}
MOTION
Frames:	9
Frame Time:	0.00833333
14.7846 74.9781 98.7761 0.0 0.0 0.0 -2.51251 0.000193546 -0.0679185 -0.692567 0.0115439 -0.119859 -6.4812e-14 -1.59028e-15 -9.93925e-17 -1.94408e-13 -6.36111e-15 -2.48481e-16 -0.0 0.0 0.0 -0.0 0.0 0.0 -3.24057e-14 -2.44987e-16 9.93923e-17 -6.79586e-13 -5.29264e-15 -1.98785e-15 -1.17566e-11 3.34495e-12 9.85972e-14 -1.34576e-10 -4.45904e-12 -3.53042e-13 -3.17446e-10 -2.41718e-12 -5.1843e-13 -5.48226e-10 -4.17289e-12 -8.97712e-13 -3.1744e-10 -2.41364e-12 -5.34333e-13 7.73091 5.47488 0.417314 -3.17445e-10 -2.41742e-12 -5.1843e-13 2.90554 0.965183 0.102902 -3.17435e-10 -2.41682e-12 -5.23996e-13 10.2786 0.731801 0.0259123 -3.17445e-10 -2.41762e-12 -5.1843e-13 2.22167 -0.733487 -0.20892 -3.24002e-14 -2.44987e-16 -1.98785e-16 -6.84872e-13 -4.78947e-15 -3.77691e-15 -1.1761e-11 -3.69004e-12 7.63333e-14 -1.34588e-10 2.59854e-12 -3.33958e-13 -3.17474e-10 -2.37263e-12 -5.34333e-13 -5.48255e-10 -4.09655e-12 -9.02482e-13 -3.17481e-10 -2.37269e-12 -5.34333e-13 -7.73091 5.47488 -0.417314 -3.17476e-10 -2.37259e-12 -5.34333e-13 -2.90554 0.965183 -0.102902 -3.17482e-10 -2.3722e-12 -5.24792e-13 -10.2786 0.731801 -0.0259123 -3.1747e-10 -2.37309e-12 -5.31153e-13 -2.22167 -0.733487 0.20892 -2.03217e-16 0.0 -3.88251e-19 -1.42761 -1.93049 0.00656179 -0.00879073 -2.07862 -0.0723261 -0.479802 3.99904 0.135563 2.03217e-16 0.0 3.88251e-19 -2.39185 -8.28714 0.252018 -0.00647439 9.43517 -0.165933 0.527799 -1.15801 -0.0358435
10.6988 73.0183 95.6178 51.5966 -85.2164 -51.5363 -4.85963 4.9312 1.31079 -0.407576 -0.516901 0.0803174 -3.33365 2.40556 0.323774 1.1674 -0.301504 0.818897 -0.0 0.0 0.0 -0.0 0.0 0.0 -8.15116e-15 4.77039e-13 5.00553e-14 20.8325 13.9801 1.59887 2.68279 14.5435 -42.6323 0.00356481 1.34187 0.18841 -4.34619e-10 8.58797e-10 9.97991e-11 -7.47668e-10 1.49023e-09 1.7572e-10 -4.34612e-10 8.58798e-10 9.97867e-11 7.73091 5.47488 0.417314 -4.34619e-10 8.58797e-10 9.97975e-11 2.90554 0.965183 0.102902 -4.3461e-10 8.58798e-10 9.97943e-11 10.2786 0.731801 0.0259123 -4.34619e-10 8.58799e-10 9.9801e-11 2.22167 -0.733487 -0.20892 -8.22119e-15 4.77044e-13 4.97695e-14 -20.462 11.9862 -10.2412 -2.39847 14.8041 42.3167 -0.0147175 -2.69195 0.376823 -8.49679e-11 -1.77377e-10 9.581e-10 -1.58611e-10 -3.08754e-10 1.66335e-09 -8.49732e-11 -1.77378e-10 9.58097e-10 -7.73091 5.47488 -0.417314 -8.49671e-11 -1.77378e-10 9.58093e-10 -2.90554 0.965183 -0.102902 -8.49752e-11 -1.77378e-10 9.58106e-10 -10.2786 0.731801 -0.0259123 -8.49627e-11 -1.77377e-10 9.581e-10 -2.22167 -0.733487 0.20892 -2.03217e-16 0.0 -3.88251e-19 -3.15934 -6.67985 -5.26854 -0.0358996 17.0291 0.166072 -0.51638 -2.55759 -0.456636 2.03217e-16 0.0 3.88251e-19 0.887369 -15.2628 -0.2994 0.118455 19.5362 -0.196353 0.260922 -2.90367 -1.32283
11.1802 73.4846 95.7468 46.8913 -83.7679 -47.0212 -7.65048 10.139 2.83215 -0.100243 -1.07431 0.296929 -6.90115 4.95021 0.68153 2.37679 -0.600609 1.7082 -0.0 0.0 0.0 -0.0 0.0 0.0 1.73086e-14 1.0116e-12 1.08931e-13 41.9001 28.7141 3.62431 18.5545 3.68269 -85.595 -0.00229897 2.73549 0.384441 -5.87218e-10 1.8136e-09 2.07263e-10 -1.00808e-09 3.14719e-09 3.65143e-10 -5.87209e-10 1.8136e-09 2.07254e-10 7.73091 5.47488 0.417314 -5.87219e-10 1.8136e-09 2.0726e-10 2.90554 0.965183 0.102902 -5.87212e-10 1.8136e-09 2.07259e-10 10.2786 0.731801 0.0259123 -5.8722e-10 1.81361e-09 2.07267e-10 2.22167 -0.733487 -0.20892 1.71568e-14 1.01161e-12 1.08658e-13 -37.1999 23.3242 -22.5376 -18.274 4.18649 85.076 0.00837574 -5.53195 0.777196 1.75394e-10 -3.85524e-10 2.03336e-09 2.77687e-10 -6.70991e-10 3.53011e-09 1.75389e-10 -3.85527e-10 2.03335e-09 -7.73091 5.47488 -0.417314 1.75397e-10 -3.85526e-10 2.03334e-09 -2.90554 0.965183 -0.102902 1.75387e-10 -3.85526e-10 2.03336e-09 -10.2786 0.731801 -0.0259123 1.754e-10 -3.85524e-10 2.03336e-09 -2.22167 -0.733487 0.20892 -2.03217e-16 0.0 -3.88251e-19 -6.01505 -11.4833 -10.9534 -0.272465 37.2634 0.508001 -0.70803 -9.61827 -1.10577 2.03217e-16 0.0 3.88251e-19 4.15425 -22.5943 -0.940536 0.267066 30.3149 -0.243684 -0.112114 -4.86499 -2.66995
11.6271 74.0705 95.876 46.076 -82.3985 -46.4622 -10.2856 14.7592 4.19221 0.173486 -1.57374 0.480841 -10.0831 7.21576 0.978215 3.52804 -0.903772 2.45696 -0.0 0.0 0.0 -0.0 0.0 0.0 4.03579e-14 1.43161e-12 1.49967e-13 59.484 41.7864 6.24786 22.6321 -27.5102 -108.785 -0.0158362 4.02543 0.566472 -6.68965e-10 2.58123e-09 3.00434e-10 -1.14655e-09 4.47903e-09 5.28955e-10 -6.68955e-10 2.58122e-09 3.00429e-10 7.73091 5.47488 0.417314 -6.68967e-10 2.58122e-09 3.00429e-10 2.90554 0.965183 0.102902 -6.6896e-10 2.58123e-09 3.00431e-10 10.2786 0.731801 0.0259123 -6.68968e-10 2.58123e-09 3.0044e-10 2.22167 -0.733487 -0.20892 4.01369e-14 1.43162e-12 1.49706e-13 -47.4865 31.0092 -35.7463 -22.6439 -26.8729 107.724 0.0629722 -8.07446 1.14053 3.80045e-10 -5.27386e-10 2.87537e-09 6.20679e-10 -9.18068e-10 4.99185e-09 3.80041e-10 -5.2739e-10 2.87536e-09 -7.73091 5.47488 -0.417314 3.80051e-10 -5.27388e-10 2.87535e-09 -2.90554 0.965183 -0.102902 3.80039e-10 -5.27389e-10 2.87537e-09 -10.2786 0.731801 -0.0259123 3.80053e-10 -5.27386e-10 2.87536e-09 -2.22167 -0.733487 0.20892 -2.03217e-16 0.0 -3.88251e-19 -9.29528 -15.6393 -16.3317 -0.84426 55.24 1.08912 -1.00706 -15.6645 -1.70225 2.03217e-16 0.0 3.88251e-19 6.99154 -29.2054 -1.56418 0.415089 39.7381 -0.296201 -0.509212 -6.38248 -3.91602
12.1569 74.7391 95.709 40.4143 -81.6205 -40.825 -11.9809 17.9464 5.02404 0.354984 -1.92826 0.582826 -12.2372 8.78456 1.11498 4.51686 -1.21778 2.85418 -0.0 0.0 0.0 -0.0 0.0 0.0 5.73812e-14 1.56522e-12 1.46405e-13 70.535 50.8333 9.13583 17.8166 -54.8584 -119.284 -0.0314587 5.05628 0.712482 -5.73581e-10 2.88089e-09 3.57873e-10 -9.8016e-10 4.99805e-09 6.2874e-10 -5.73571e-10 2.88089e-09 3.5787e-10 7.73091 5.47488 0.417314 -5.73584e-10 2.88089e-09 3.57866e-10 2.90554 0.965183 0.102902 -5.73579e-10 2.88089e-09 3.5787e-10 10.2786 0.731801 0.0259123 -5.73586e-10 2.8809e-09 3.57879e-10 2.22167 -0.733487 -0.20892 5.71224e-14 1.56524e-12 1.46156e-13 -52.0924 34.3431 -46.2339 -18.9018 -54.1488 116.818 0.121104 -9.87457 1.40183 4.45421e-10 -5.03536e-10 3.13426e-09 7.30406e-10 -8.77245e-10 5.44106e-09 4.45417e-10 -5.0354e-10 3.13425e-09 -7.73091 5.47488 -0.417314 4.45428e-10 -5.03539e-10 3.13423e-09 -2.90554 0.965183 -0.102902 4.45415e-10 -5.03539e-10 3.13425e-09 -10.2786 0.731801 -0.0259123 4.45429e-10 -5.03535e-10 3.13425e-09 -2.22167 -0.733487 0.20892 -2.03217e-16 0.0 -3.88251e-19 -11.835 -18.6422 -20.5134 -1.8066 67.5756 2.00677 -1.25067 -19.1822 -2.0908 2.03217e-16 0.0 3.88251e-19 9.10051 -34.0239 -1.99803 0.514963 45.7726 -0.323163 -0.776906 -6.80284 -4.88807
12.8304 75.4903 95.3661 35.7116 -80.4835 -35.5111 -12.0273 19.1277 4.99098 0.390488 -2.0818 0.565508 -12.8853 9.38059 1.02336 5.27886 -1.53067 2.75287 -0.0 0.0 0.0 -0.0 0.0 0.0 7.1017e-14 1.25961e-12 6.35614e-14 74.3318 54.4208 10.9037 12.7811 -66.1202 -124.504 -0.0430687 5.76975 0.813782 -1.52471e-10 2.43691e-09 3.54629e-10 -2.52604e-10 4.225e-09 6.19819e-10 -1.52461e-10 2.43691e-09 3.54628e-10 7.73091 5.47488 0.417314 -1.52474e-10 2.43691e-09 3.54621e-10 2.90554 0.965183 0.102902 -1.5247e-10 2.43691e-09 3.54626e-10 10.2786 0.731801 0.0259123 -1.52477e-10 2.43692e-09 3.54636e-10 2.22167 -0.733487 -0.20892 7.07676e-14 1.25964e-12 6.33253e-14 -53.056 35.2267 -50.5949 -15.4946 -65.3699 120.119 0.151015 -10.6704 1.51855 2.83059e-10 -1.87376e-10 2.47405e-09 4.58329e-10 -3.28772e-10 4.29424e-09 2.83054e-10 -1.87379e-10 2.47405e-09 -7.73091 5.47488 -0.417314 2.83066e-10 -1.87379e-10 2.47403e-09 -2.90554 0.965183 -0.102902 2.83053e-10 -1.8738e-10 2.47405e-09 -10.2786 0.731801 -0.0259123 2.83067e-10 -1.87376e-10 2.47405e-09 -2.22167 -0.733487 0.20892 -2.03217e-16 0.0 -3.88251e-19 -12.3472 -20.3608 -22.7926 -2.46125 71.9682 2.60965 -1.35356 -19.2161 -2.3155 2.03217e-16 0.0 3.88251e-19 10.5598 -36.4381 -1.9114 0.515158 46.9858 -0.280427 -0.790209 -5.43593 -5.7977
13.4447 76.2504 94.9658 30.1241 -79.9004 -29.6046 -10.8547 18.8806 4.32105 0.321676 -2.0917 0.463156 -12.4565 9.28163 0.767714 5.8722 -1.84379 2.29565 -0.0 0.0 0.0 -0.0 0.0 0.0 8.19926e-14 6.42103e-13 -7.51095e-14 73.753 54.1799 11.151 13.2586 -64.9389 -124.228 -0.0500409 6.25441 0.882642 4.97598e-10 1.46597e-09 3.08549e-10 8.69384e-10 2.53637e-09 5.34158e-10 4.97607e-10 1.46596e-09 3.08548e-10 7.73091 5.47488 0.417314 4.97597e-10 1.46597e-09 3.08538e-10 2.90554 0.965183 0.102902 4.97599e-10 1.46597e-09 3.08544e-10 10.2786 0.731801 0.0259123 4.97592e-10 1.46597e-09 3.08554e-10 2.22167 -0.733487 -0.20892 8.17864e-14 6.42125e-13 -7.53332e-14 -52.191 35.4354 -50.264 -16.1048 -64.0682 119.477 0.152281 -10.7476 1.52969 -4.04122e-11 3.34704e-10 1.16225e-09 -8.38346e-11 5.77327e-10 2.01591e-09 -4.042e-11 3.34702e-10 1.16226e-09 -7.73091 5.47488 -0.417314 -4.04084e-11 3.34701e-10 1.16224e-09 -2.90554 0.965183 -0.102902 -4.04186e-11 3.34701e-10 1.16225e-09 -10.2786 0.731801 -0.0259123 -4.04063e-11 3.34705e-10 1.16224e-09 -2.22167 -0.733487 0.20892 -2.03217e-16 0.0 -3.88251e-19 -11.199 -21.2749 -23.6255 -2.24448 70.6954 2.35012 -1.31942 -16.7605 -2.40352 2.03217e-16 0.0 3.88251e-19 11.6041 -37.1304 -1.42125 0.448195 44.759 -0.189716 -0.551346 -2.81192 -6.65031
14.0621 76.902 94.4036 18.5844 -79.7973 -17.933 -9.34016 18.096 3.4607 0.232586 -2.0412 0.333951 -11.6642 8.90114 0.446475 6.37612 -2.18406 1.70582 -0.0 0.0 0.0 -0.0 0.0 0.0 8.3826e-14 -3.89394e-14 -2.09162e-13 71.4018 52.3669 10.7571 16.0552 -58.7932 -121.631 -0.0538705 6.57515 0.928218 1.11486e-09 4.25852e-10 2.62384e-10 1.93417e-09 7.28137e-10 4.48309e-10 1.11487e-09 4.25852e-10 2.62383e-10 7.73091 5.47488 0.417314 1.11486e-09 4.25854e-10 2.62372e-10 2.90554 0.965183 0.102902 1.11486e-09 4.25854e-10 2.62379e-10 10.2786 0.731801 0.0259123 1.11485e-09 4.25853e-10 2.62388e-10 2.22167 -0.733487 -0.20892 8.3671e-14 -3.89181e-14 -2.09373e-13 -50.7292 35.4068 -48.0109 -18.1462 -57.7606 117.451 0.139893 -10.4826 1.49047 -3.75925e-10 8.42653e-10 -2.45845e-10 -6.4566e-10 1.45914e-09 -4.29473e-10 -3.75935e-10 8.42653e-10 -2.45823e-10 -7.73091 5.47488 -0.417314 -3.75924e-10 8.4265e-10 -2.45847e-10 -2.90554 0.965183 -0.102902 -3.75932e-10 8.4265e-10 -2.45844e-10 -10.2786 0.731801 -0.0259123 -3.75921e-10 8.42654e-10 -2.45848e-10 -2.22167 -0.733487 0.20892 -2.03217e-16 0.0 -3.88251e-19 -9.6308 -21.8842 -23.7969 -1.79113 67.2408 1.85796 -1.12076 -13.2271 -2.15564 2.03217e-16 0.0 3.88251e-19 12.1809 -36.9753 -1.00868 0.372338 41.2793 -0.100653 -0.18231 -0.10291 -6.96061
14.9819 77.2804 93.7305 10.8625 -78.3381 -8.8365 -8.31924 17.6737 2.84288 0.20684 -2.01353 0.236062 -11.2152 8.65297 0.156987 6.87377 -2.57836 1.2068 -0.0 0.0 0.0 -0.0 0.0 0.0 7.0035e-14 -5.35138e-13 -2.78149e-13 69.7211 51.2174 10.7389 17.3157 -55.1622 -120.392 -0.0569973 6.79688 0.959791 1.43755e-09 -2.25632e-10 2.58888e-10 2.49013e-09 -4.03749e-10 4.38824e-10 1.43756e-09 -2.25631e-10 2.58884e-10 7.73091 5.47488 0.417314 1.43755e-09 -2.2563e-10 2.58875e-10 2.90554 0.965183 0.102902 1.43755e-09 -2.25631e-10 2.58881e-10 10.2786 0.731801 0.0259123 1.43754e-09 -2.25633e-10 2.58891e-10 2.22167 -0.733487 -0.20892 6.99139e-14 -5.3512e-13 -2.78348e-13 -49.8115 35.4842 -46.6612 -19.0972 -54.0128 116.363 0.130671 -10.2521 1.45658 -5.74409e-10 1.11642e-09 -1.19492e-09 -9.76722e-10 1.93473e-09 -2.07742e-09 -5.74421e-10 1.11642e-09 -1.19489e-09 -7.73091 5.47488 -0.417314 -5.7441e-10 1.11642e-09 -1.19491e-09 -2.90554 0.965183 -0.102902 -5.74417e-10 1.11642e-09 -1.19491e-09 -10.2786 0.731801 -0.0259123 -5.74406e-10 1.11642e-09 -1.19492e-09 -2.22167 -0.733487 0.20892 -2.03217e-16 0.0 -3.88251e-19 -8.98968 -22.6314 -24.1392 -1.58229 65.0895 1.61241 -0.794342 -10.0237 -1.37758 2.03217e-16 0.0 3.88251e-19 12.2514 -36.8527 -1.14913 0.320475 38.7341 -0.0436933 0.07016 1.53443 -6.22362
